<svg width="16" height="17" viewBox="0 0 16 17" fill="none" xmlns="http://www.w3.org/2000/svg">
<path d="M1.6001 4.50039C1.6001 4.07604 1.76867 3.66908 2.06873 3.36902C2.36878 3.06896 2.77575 2.90039 3.2001 2.90039H8.8001C9.22444 2.90039 9.63141 3.06896 9.93147 3.36902C10.2315 3.66908 10.4001 4.07604 10.4001 4.50039V7.70039C10.4001 8.12474 10.2315 8.5317 9.93147 8.83176C9.63141 9.13182 9.22444 9.30039 8.8001 9.30039H7.2001L4.8001 11.7004V9.30039H3.2001C2.77575 9.30039 2.36878 9.13182 2.06873 8.83176C1.76867 8.5317 1.6001 8.12474 1.6001 7.70039V4.50039Z" fill="white"/>
<path d="M12.0001 6.09961V7.69961C12.0001 8.5483 11.663 9.36223 11.0628 9.96235C10.4627 10.5625 9.6488 10.8996 8.80011 10.8996H7.86251L6.44971 12.3132C6.67371 12.4324 6.92891 12.4996 7.20011 12.4996H8.80011L11.2001 14.8996V12.4996H12.8001C13.2245 12.4996 13.6314 12.331 13.9315 12.031C14.2315 11.7309 14.4001 11.324 14.4001 10.8996V7.69961C14.4001 7.27526 14.2315 6.8683 13.9315 6.56824C13.6314 6.26818 13.2245 6.09961 12.8001 6.09961H12.0001Z" fill="white"/>
</svg>
