<svg width="16" height="17" viewBox="0 0 16 17" fill="none" xmlns="http://www.w3.org/2000/svg">
<path d="M5.6001 2.90039C5.38792 2.90039 5.18444 2.98468 5.03441 3.13471C4.88438 3.28473 4.8001 3.48822 4.8001 3.70039C4.8001 3.91256 4.88438 4.11605 5.03441 4.26608C5.18444 4.41611 5.38792 4.50039 5.6001 4.50039H10.4001C10.6123 4.50039 10.8158 4.41611 10.9658 4.26608C11.1158 4.11605 11.2001 3.91256 11.2001 3.70039C11.2001 3.48822 11.1158 3.28473 10.9658 3.13471C10.8158 2.98468 10.6123 2.90039 10.4001 2.90039H5.6001ZM3.2001 6.10039C3.2001 5.88822 3.28438 5.68473 3.43441 5.53471C3.58444 5.38468 3.78792 5.30039 4.0001 5.30039H12.0001C12.2123 5.30039 12.4158 5.38468 12.5658 5.53471C12.7158 5.68473 12.8001 5.88822 12.8001 6.10039C12.8001 6.31256 12.7158 6.51605 12.5658 6.66608C12.4158 6.81611 12.2123 6.90039 12.0001 6.90039H4.0001C3.78792 6.90039 3.58444 6.81611 3.43441 6.66608C3.28438 6.51605 3.2001 6.31256 3.2001 6.10039ZM1.6001 9.30039C1.6001 8.87604 1.76867 8.46908 2.06873 8.16902C2.36878 7.86896 2.77575 7.70039 3.2001 7.70039H12.8001C13.2244 7.70039 13.6314 7.86896 13.9315 8.16902C14.2315 8.46908 14.4001 8.87604 14.4001 9.30039V12.5004C14.4001 12.9247 14.2315 13.3317 13.9315 13.6318C13.6314 13.9318 13.2244 14.1004 12.8001 14.1004H3.2001C2.77575 14.1004 2.36878 13.9318 2.06873 13.6318C1.76867 13.3317 1.6001 12.9247 1.6001 12.5004V9.30039Z" fill="#767676"/>
</svg>
